# xmcd CD database file
#
# Track frame offsets:
#	150
#	70960
#	103730
#	165025
#
# Disc length: 2708 seconds
#
# Revision: 0
# Processed by: cddbd v1.5PL3 Copyright (c) Steve Scherf et al.
# Submitted via: CDex 1.50beta8
#
DISCID=280a9204
DTITLE=Art Blakey and The Jazz Messengers - Au Club Saint-Germain Vol.1
DYEAR=1900
DGENRE=Jazz
TTITLE0=Politely
TTITLE1=Whisper Not
TTITLE2=Now's The Time
TTITLE3=The First Theme
EXTD=
EXTT0=
EXTT1=
EXTT2=
EXTT3=
PLAYORDER=
